<?xml version="1.0" standalone="no"?>
<!DOCTYPE svg PUBLIC "-//W3C//DTD SVG 20010904//EN"
 "http://www.w3.org/TR/2001/REC-SVG-20010904/DTD/svg10.dtd">
<svg version="1.0" xmlns="http://www.w3.org/2000/svg"
 width="797.000000pt" height="690.000000pt" viewBox="0 0 797.000000 690.000000"
 preserveAspectRatio="xMidYMid meet">

<g transform="translate(0.000000,690.000000) scale(0.100000,-0.100000)"
fill="#000000" stroke="none">
<path d="M1998 3457 l-1988 -3442 1991 -3 c1095 -1 2884 -1 3975 0 l1985 3
-1986 3440 c-1093 1892 -1987 3440 -1988 3442 -1 1 -897 -1547 -1989 -3440z
m1839 445 l-2 -1484 -68 80 c-265 309 -645 493 -1053 509 -232 9 -412 -21
-614 -102 -46 -19 -86 -33 -88 -31 -1 2 406 711 905 1576 l908 1572 7 -318 c4
-176 7 -987 5 -1802z m1458 128 c621 -1075 1134 -1964 1141 -1975 12 -19 -50
-59 -1132 -730 -629 -390 -1149 -711 -1154 -713 -7 -2 -10 964 -10 2704 0
2273 2 2705 13 2689 8 -11 522 -900 1142 -1975z m-2449 -1335 c603 -106 1031
-661 974 -1266 -48 -508 -390 -908 -889 -1041 -110 -29 -374 -36 -493 -14
-475 90 -842 447 -944 919 -22 102 -29 285 -15 390 42 313 214 607 464 795
136 102 340 189 504 217 109 18 293 18 399 0z m4176 -1656 l418 -724 -800 -3
c-440 -1 -1159 -1 -1598 0 l-798 3 1171 727 c643 399 1174 725 1179 724 5 -1
198 -328 428 -727z m-5838 286 c17 -150 89 -366 170 -508 101 -176 246 -346
390 -455 l69 -52 -642 0 c-353 0 -640 3 -638 8 2 4 145 252 317 550 198 345
316 539 320 530 4 -7 10 -40 14 -73z m2653 -1012 c-2 -2 -82 -2 -177 -1 l-173
3 75 58 c75 57 202 183 249 246 l24 33 3 -168 c1 -92 1 -169 -1 -171z"/>
</g>
</svg>
